<svg width="44" height="18" viewBox="0 0 44 18" fill="none" xmlns="http://www.w3.org/2000/svg">
<path opacity="0.75" d="M1.06836 0.566406L5.59949 8.80264M1.00027 17.001L5.59949 8.80264M5.59949 8.80264L12.9038 8.8329" stroke="black" style="stroke:black;stroke-opacity:1;" stroke-width="0.456522"/>
<g clip-path="url(#clip0_2776_6865)">
<path opacity="0.75" d="M21.0543 9.7906L21.0611 9.77588L21.0449 9.77545L18.9738 9.72086L18.974 9.71429L18.9653 9.72471L18.2061 10.6368L18.206 10.637C18.1339 10.7268 18.0701 10.7906 17.9886 10.832C17.9071 10.8734 17.8069 10.893 17.6612 10.8924L17.2777 10.8908L17.2774 10.8908C17.2184 10.8925 17.1599 10.8799 17.1068 10.8541C17.0537 10.8283 17.0075 10.7901 16.9723 10.7427C16.9233 10.676 16.8749 10.5628 16.9232 10.4008L16.9233 10.4007L17.3537 8.88312C17.3537 8.88311 17.3537 8.8831 17.3537 8.88309C17.3569 8.87212 17.3607 8.86112 17.3649 8.85028L17.365 8.85033L17.3654 8.84855C17.3659 8.8461 17.3659 8.84357 17.3654 8.84112L17.3656 8.84108L17.3649 8.83928C17.3606 8.82852 17.357 8.81752 17.3541 8.80635L17.354 8.8063L16.9358 7.27556L16.9358 7.27551C16.8915 7.11629 16.9411 7.00605 16.9902 6.94141L16.9902 6.94141C17.0233 6.89788 17.0661 6.86273 17.1153 6.83877C17.1644 6.81481 17.2185 6.80272 17.2732 6.80346L17.2733 6.80346L17.6781 6.80514C17.8941 6.80604 18.103 6.90386 18.2251 7.06013L18.2251 7.06013L18.2252 7.0603L18.9613 7.9632L18.9563 7.96728L18.9697 7.96714L21.0524 7.94495L21.0687 7.94478L21.062 7.92987L19.6956 4.88546C19.6729 4.83488 19.6633 4.77941 19.6676 4.72414C19.6718 4.66886 19.6899 4.61554 19.7201 4.56904C19.7503 4.52254 19.7917 4.48435 19.8404 4.45797C19.8892 4.43158 19.9438 4.41784 19.9992 4.418L20.5749 4.42038C20.6536 4.42231 20.7309 4.44192 20.801 4.47778C20.8711 4.51365 20.9322 4.56485 20.9798 4.62758L20.9798 4.62758L20.98 4.62787L23.6425 7.89165L23.6373 7.89589L23.651 7.89559L24.8874 7.86818L24.8877 7.86817C24.9779 7.86364 25.2284 7.86296 25.2865 7.8632C25.8768 7.86597 26.3466 7.96394 26.668 8.14055C26.989 8.31692 27.1616 8.57123 27.1603 8.88809C27.1598 8.98791 27.1393 9.13028 27.052 9.27687C26.9648 9.42337 26.8105 9.57485 26.5412 9.69235C26.223 9.83145 25.7981 9.90107 25.2776 9.89891C25.2202 9.89868 24.9703 9.89593 24.8789 9.89064L24.8786 9.89063L23.6427 9.85256L23.6429 9.84587L23.6342 9.85641L20.9381 13.098L20.9379 13.0983C20.8897 13.1603 20.8282 13.2108 20.7579 13.2459C20.6877 13.281 20.6105 13.2998 20.5319 13.3011L19.9624 13.2987C19.907 13.2984 19.8525 13.2843 19.8039 13.2576C19.7553 13.2308 19.7142 13.1923 19.6844 13.1456C19.6545 13.0988 19.6369 13.0454 19.633 12.9901C19.6292 12.9348 19.6392 12.8794 19.6623 12.8289L21.0543 9.7906Z" fill="black" stroke="black" style="fill:black;fill-opacity:1;stroke:black;stroke-opacity:1;" stroke-width="0.0213995"/>
</g>
<path opacity="0.75" d="M43.0664 0.738281L38.4672 8.93669M42.9983 17.1729L38.4672 8.93669M38.4672 8.93669L31.1629 8.90643" stroke="black" style="stroke:black;stroke-opacity:1;" stroke-width="0.456522"/>
<defs>
<clipPath id="clip0_2776_6865">
<rect width="10.9565" height="10.9565" fill="white" style="fill:white;fill-opacity:1;" transform="translate(16.5781 3.36719) rotate(0.23738)"/>
</clipPath>
</defs>
</svg>
